<svg xmlns="http://www.w3.org/2000/svg" height="70px" viewBox="0 0 590 272">
<g>
<path d="M 590.00 272.00 L 0.00 272.00 L 68.25 271.94 C131.94,271.88 144.87,271.33 124.00,269.56 C79.84,265.82 37.32,236.80 16.79,196.41 C11.92,186.83 9.79,181.50 6.01,169.50 C5.49,167.85 4.33,162.23 3.43,157.00 C1.38,145.12 1.92,119.33 4.45,108.00 C14.98,60.89 48.71,23.10 93.50,8.25 C126.07,-2.55 164.96,0.13 195.99,15.30 C206.09,20.25 220.12,30.19 229.04,38.73 C237.88,47.21 241.72,52.02 258.61,75.75 L 265.19 84.99 L 271.09 80.86 C274.34,78.58 277.41,76.21 277.93,75.58 C278.57,74.82 276.94,71.67 272.95,65.97 C271.70,64.19 270.57,62.57 269.53,61.10 C260.77,48.60 259.30,46.50 259.84,45.56 C260.01,45.26 260.40,45.08 260.81,44.72 C263.38,42.46 269.88,39.40 277.57,36.82 C283.52,34.83 286.48,34.50 298.50,34.52 C311.10,34.53 313.26,34.80 320.11,37.21 C335.65,42.68 346.14,50.88 356.44,65.60 C360.25,71.04 366.33,79.73 369.94,84.89 C373.55,90.06 377.80,96.13 379.38,98.39 C380.97,100.65 384.61,105.88 387.47,110.00 C418.27,154.37 426.06,165.49 430.56,171.54 C443.59,189.06 458.45,198.30 477.71,200.86 C494.77,203.14 514.43,197.09 527.68,185.50 C530.51,183.02 533.24,181.00 533.75,181.00 C534.27,181.00 542.29,186.64 551.59,193.53 C560.89,200.43 572.88,209.32 578.22,213.28 C583.57,217.25 587.96,220.96 587.97,221.52 C588.01,223.13 572.26,238.18 564.22,244.21 C546.35,257.63 520.57,267.64 499.15,269.50 C479.19,271.23 488.79,271.83 537.75,271.91 L 590.00 272.00 ZM 138.00 271.10 C137.18,271.56 214.80,271.95 310.50,271.95 C410.72,271.96 483.91,271.60 483.11,271.09 C482.35,270.61 477.85,269.90 473.11,269.52 C456.22,268.14 441.94,263.75 422.86,254.06 C405.78,245.38 386.91,228.72 374.64,211.50 C364.00,196.56 360.03,190.85 357.81,187.25 C356.71,185.46 355.37,184.00 354.85,184.00 C353.64,184.00 342.34,191.63 341.48,193.04 C341.12,193.62 342.56,196.43 344.68,199.29 C346.80,202.16 349.75,206.30 351.22,208.50 C352.70,210.70 355.76,215.13 358.03,218.33 C360.34,221.61 361.90,224.82 361.58,225.65 C360.60,228.19 344.73,234.80 335.34,236.57 C316.60,240.09 297.36,235.36 282.00,223.46 C274.82,217.89 270.36,213.07 264.46,204.50 C261.81,200.65 255.79,191.97 251.07,185.20 C246.36,178.44 240.25,169.66 237.50,165.70 C234.74,161.74 224.62,147.25 215.00,133.50 C205.38,119.75 195.26,105.18 192.52,101.13 C183.01,87.07 168.20,76.12 153.00,71.90 C145.91,69.93 125.66,70.20 118.55,72.36 C99.90,78.03 85.29,90.38 77.01,107.50 C72.56,116.69 71.00,123.97 71.00,135.50 C71.00,147.01 72.56,154.29 77.01,163.57 C80.21,170.25 82.57,173.32 90.59,181.26 C97.60,188.20 102.13,191.77 106.87,194.11 C125.18,203.12 147.25,203.38 164.37,194.79 C167.60,193.18 179.89,185.08 191.69,176.80 C203.50,168.51 213.51,162.14 213.95,162.62 C214.75,163.48 219.57,170.33 241.33,201.48 C247.29,210.01 252.02,217.41 251.83,217.92 C251.43,219.04 230.24,234.08 212.92,245.54 C190.09,260.64 170.68,267.79 147.51,269.63 C143.10,269.98 138.82,270.64 138.00,271.10 ZM 0.00 0.00 L 543.44 0.00 C512.66,0.00 497.09,0.34 497.50,1.00 C497.84,1.55 499.99,2.00 502.28,2.00 C506.34,2.00 512.25,3.51 528.50,8.69 C537.97,11.71 551.70,18.44 561.30,24.76 C567.83,29.07 585.00,44.40 585.00,45.93 C585.00,46.74 532.81,85.75 530.58,86.61 C529.78,86.92 526.83,85.33 523.89,83.01 C517.61,78.04 513.79,76.05 504.50,72.90 C498.52,70.87 495.68,70.54 485.00,70.61 C467.47,70.74 458.31,74.01 441.00,86.32 C436.33,89.64 428.23,95.28 423.00,98.84 C417.77,102.39 412.45,106.25 411.16,107.40 L 408.82 109.50 L 406.83 107.00 C404.78,104.41 394.06,89.14 378.27,66.29 L 369.13 53.08 L 381.32 44.47 C410.31,23.99 416.45,19.97 425.22,15.66 C442.61,7.12 455.31,3.77 478.82,1.54 C490.42,0.44 455.09,0.23 246.25,0.12 L 0.00 0.00 ZM 291.79 158.38 C293.82,159.82 295.82,161.00 296.24,161.00 C296.66,161.00 297.00,154.02 297.00,145.50 C297.00,136.98 296.70,130.00 296.34,130.00 C295.97,130.00 292.18,132.05 287.90,134.56 L 280.13 139.11 L 281.50 143.65 C283.26,149.51 287.15,155.07 291.79,158.38 ZM 280.00 132.54 C280.00,135.49 280.84,135.59 285.19,133.15 C297.37,126.32 305.68,121.52 306.77,120.69 C307.71,119.97 306.40,118.70 301.77,115.85 C292.43,110.09 292.15,110.08 287.83,114.95 C283.96,119.30 280.00,128.21 280.00,132.54 ZM 316.00 121.49 C319.02,123.25 321.84,124.51 322.25,124.29 C322.66,124.06 323.00,120.32 323.00,115.98 C323.00,106.56 322.39,105.98 311.78,105.22 C304.66,104.71 295.53,107.08 296.25,109.25 C296.44,109.83 299.73,112.10 303.55,114.30 C307.37,116.49 312.98,119.73 316.00,121.49 ZM 304.41 164.10 C310.16,165.57 325.00,162.56 325.00,159.93 C325.00,158.96 301.69,145.00 300.06,145.00 C298.55,145.00 298.64,161.66 300.16,162.60 C300.80,163.00 302.71,163.67 304.41,164.10 ZM 320.67 153.79 C324.43,156.01 327.80,157.86 328.17,157.91 C329.75,158.12 336.99,148.49 338.42,144.27 C340.20,139.07 340.47,135.00 339.05,135.00 C338.05,135.00 316.07,147.57 314.67,148.94 C314.22,149.38 316.92,151.57 320.67,153.79 ZM 325.00 123.96 C325.00,132.23 325.40,139.00 325.90,139.00 C326.39,139.00 329.66,137.26 333.15,135.13 C338.87,131.65 339.46,130.98 339.15,128.39 C338.46,122.77 331.60,112.46 326.86,109.93 C325.08,108.97 325.00,109.61 325.00,123.96 ZM 248.45 147.55 C249.80,148.90 251.85,150.00 253.00,150.00 C255.76,150.00 260.00,145.67 260.00,142.86 C260.00,139.87 256.21,136.00 253.28,136.00 C250.35,136.00 246.00,140.18 246.00,143.00 C246.00,144.15 247.10,146.20 248.45,147.55 ZM 325.45 86.55 C326.80,87.90 328.91,89.00 330.14,89.00 C333.13,89.00 337.00,85.21 337.00,82.28 C337.00,79.35 332.82,75.00 330.00,75.00 C327.30,75.00 323.00,79.30 323.00,82.00 C323.00,83.15 324.10,85.20 325.45,86.55 ZM 269.45 94.55 C272.49,97.58 275.65,97.67 278.69,94.83 C281.71,91.99 281.62,88.53 278.45,85.36 C275.49,82.40 271.66,82.71 268.75,86.15 C266.34,89.00 266.56,91.65 269.45,94.55 ZM 357.45 160.55 C360.65,163.74 363.01,163.65 366.31,160.20 C369.54,156.82 369.66,155.12 366.93,151.63 C364.37,148.38 360.49,148.19 357.31,151.17 C354.32,153.99 354.37,157.46 357.45,160.55 ZM 314.50 196.81 C317.33,198.41 318.38,198.28 321.37,195.93 C324.59,193.39 324.88,188.88 322.00,186.00 C317.93,181.93 310.99,184.65 311.02,190.31 C311.03,193.97 311.70,195.22 314.50,196.81 ZM 252.63 118.93 C254.08,120.07 255.82,121.00 256.50,121.00 C257.18,121.00 258.92,120.07 260.37,118.93 C265.43,114.94 262.86,107.00 256.50,107.00 C250.14,107.00 247.57,114.94 252.63,118.93 ZM 296.00 83.00 C297.11,84.11 299.33,85.00 301.00,85.00 C307.06,85.00 310.02,78.55 305.96,74.19 C303.36,71.40 299.28,71.39 296.31,74.17 C293.47,76.85 293.35,80.35 296.00,83.00 ZM 283.07 191.37 C288.56,198.34 298.55,190.51 293.44,183.22 C291.17,179.97 285.79,180.18 283.07,183.63 C281.93,185.08 281.00,186.82 281.00,187.50 C281.00,188.18 281.93,189.92 283.07,191.37 ZM 260.63 174.93 C263.68,177.32 264.35,177.41 267.32,175.85 C270.28,174.29 270.97,173.06 270.98,169.31 C271.01,163.55 264.66,161.09 260.31,165.17 C257.16,168.14 257.29,172.30 260.63,174.93 ZM 348.56 103.78 C350.79,106.97 356.21,106.82 358.83,103.49 C363.86,97.09 354.77,89.23 349.00,95.00 C346.60,97.40 346.43,100.75 348.56,103.78 ZM 360.65 131.17 C361.62,132.24 363.68,133.00 365.60,133.00 C371.12,133.00 373.80,127.02 370.44,122.22 C368.55,119.53 363.51,119.23 360.83,121.65 C358.55,123.72 358.46,128.74 360.65,131.17 ZM 340.22 184.44 C343.28,186.59 345.95,186.39 348.69,183.83 C355.00,177.90 346.39,168.72 339.97,174.53 C337.20,177.03 337.34,182.43 340.22,184.44 ZM 342.65 168.17 C343.57,169.18 345.14,170.00 346.15,170.00 C348.38,170.00 352.00,166.59 352.00,164.50 C352.00,162.67 348.48,159.00 346.72,159.00 C344.38,159.00 341.00,162.09 341.00,164.23 C341.00,165.39 341.74,167.17 342.65,168.17 ZM 350.00 121.00 C351.10,122.10 352.87,123.00 353.94,123.00 C356.01,123.00 359.00,119.52 359.00,117.11 C359.00,114.99 355.98,112.00 353.85,112.00 C351.62,112.00 348.00,115.41 348.00,117.50 C348.00,118.32 348.90,119.90 350.00,121.00 ZM 312.65 91.17 C313.57,92.18 315.14,93.00 316.15,93.00 C318.38,93.00 322.00,89.59 322.00,87.50 C322.00,86.68 321.10,85.10 320.00,84.00 C318.90,82.90 317.33,82.00 316.50,82.00 C314.48,82.00 311.00,85.59 311.00,87.67 C311.00,88.59 311.74,90.17 312.65,91.17 ZM 289.22 94.44 C292.03,96.41 292.91,96.40 295.17,94.35 C298.78,91.08 296.47,85.00 291.63,85.00 C290.40,85.00 288.86,85.54 288.20,86.20 C286.21,88.19 286.77,92.73 289.22,94.44 ZM 268.20 108.80 C271.11,111.71 277.00,109.28 277.00,105.16 C277.00,101.70 275.35,100.00 272.00,100.00 C268.70,100.00 267.00,101.70 267.00,105.00 C267.00,106.43 267.54,108.14 268.20,108.80 ZM 260.41 154.50 C261.55,156.25 262.95,157.00 265.04,157.00 C267.27,157.00 268.34,156.36 269.18,154.50 C272.02,148.26 264.16,143.78 260.41,149.50 C258.89,151.82 258.89,152.18 260.41,154.50 ZM 322.63 182.48 C325.21,185.07 330.26,184.09 331.41,180.78 C332.17,178.63 331.98,177.64 330.53,176.03 C328.30,173.57 325.29,173.42 322.83,175.65 C320.57,177.70 320.49,180.34 322.63,182.48 ZM 335.65 101.17 C337.71,103.44 339.79,103.50 342.17,101.35 C344.45,99.29 344.52,96.23 342.35,93.83 C340.29,91.56 338.21,91.50 335.83,93.65 C333.55,95.71 333.48,98.77 335.65,101.17 ZM 352.57 145.43 C354.95,147.81 358.71,147.37 360.59,144.50 C362.11,142.18 362.11,141.82 360.59,139.50 C359.60,137.98 358.01,137.00 356.55,137.00 C351.79,137.00 349.34,142.19 352.57,145.43 ZM 298.04 185.07 C300.17,189.05 307.00,186.43 307.00,181.63 C307.00,178.68 305.19,177.00 302.00,177.00 C297.48,177.00 295.68,180.66 298.04,185.07 ZM 258.57 131.08 C260.71,133.44 262.77,133.52 265.17,131.35 C267.59,129.15 267.49,125.75 264.93,123.44 C263.04,121.73 262.63,121.70 260.18,123.07 C256.94,124.88 256.22,128.48 258.57,131.08 ZM 275.65 175.17 C277.85,177.59 281.25,177.49 283.56,174.93 C285.27,173.04 285.30,172.63 283.93,170.18 C282.12,166.94 278.52,166.22 275.92,168.57 C273.56,170.71 273.48,172.77 275.65,175.17 ZM 326.45 169.94 C328.68,172.41 330.32,172.54 332.43,170.43 C334.54,168.32 334.41,166.68 331.94,164.45 C330.40,163.06 329.47,162.84 328.26,163.61 C325.05,165.63 324.45,167.74 326.45,169.94 ZM 288.20 171.80 C288.86,172.46 290.12,173.00 291.00,173.00 C295.00,173.00 296.53,166.89 293.00,165.00 C288.80,162.75 284.81,168.41 288.20,171.80 ZM 307.98 176.19 C310.72,178.40 310.89,178.41 313.17,176.35 C315.51,174.23 315.48,172.75 313.07,170.56 C310.70,168.42 307.37,169.25 306.42,172.24 C305.93,173.78 306.37,174.88 307.98,176.19 ZM 324.20 103.80 C325.94,105.54 328.44,105.27 330.37,103.14 C333.61,99.56 329.14,94.81 325.15,97.60 C322.77,99.27 322.36,101.96 324.20,103.80 ZM 272.57 119.43 C275.42,122.28 279.00,120.61 279.00,116.42 C279.00,113.10 276.48,111.46 273.47,112.83 C270.65,114.12 270.24,117.10 272.57,119.43 ZM 273.20 157.80 C275.03,159.63 278.81,159.23 279.96,157.07 C281.36,154.47 280.29,152.11 277.38,151.38 C273.17,150.32 270.24,154.84 273.20,157.80 ZM 344.60 135.85 C346.47,138.51 348.17,138.58 350.44,136.07 C352.53,133.76 351.77,130.38 348.96,129.49 C345.10,128.26 342.23,132.45 344.60,135.85 ZM 267.03 138.06 C268.37,140.56 272.75,140.38 274.39,137.75 C275.89,135.36 274.07,132.59 270.72,132.19 C267.39,131.79 265.39,134.98 267.03,138.06 ZM 339.52 117.38 C340.41,118.27 341.53,119.00 342.00,119.00 C343.72,119.00 346.10,115.70 345.80,113.73 C345.64,112.61 344.71,111.21 343.75,110.61 C339.91,108.20 336.23,114.09 339.52,117.38 ZM 340.04 155.55 C340.70,156.35 342.03,157.00 343.00,157.00 C346.98,157.00 348.21,151.79 344.75,149.61 C341.29,147.43 337.38,152.35 340.04,155.55 ZM 305.04 98.55 C305.70,99.35 307.03,100.00 308.00,100.00 C311.98,100.00 313.21,94.79 309.75,92.61 C306.29,90.43 302.38,95.35 305.04,98.55 ZM 286.04 104.55 C286.70,105.35 288.03,106.00 289.00,106.00 C292.98,106.00 294.21,100.79 290.75,98.61 C287.29,96.43 283.38,101.35 286.04,104.55 Z" fill="rgb(90,31,45)"/>
<path d="M 291.79 158.38 C287.15,155.07 283.26,149.51 281.50,143.65 L 280.13 139.11 L 287.90 134.56 C292.18,132.05 295.97,130.00 296.34,130.00 C296.70,130.00 297.00,136.98 297.00,145.50 C297.00,154.02 296.66,161.00 296.24,161.00 C295.82,161.00 293.82,159.82 291.79,158.38 ZM 280.00 132.54 C280.00,128.21 283.96,119.30 287.83,114.95 C292.15,110.08 292.43,110.09 301.77,115.85 C306.40,118.70 307.71,119.97 306.77,120.69 C305.68,121.52 297.37,126.32 285.19,133.15 C280.84,135.59 280.00,135.49 280.00,132.54 ZM 316.00 121.49 C312.98,119.73 307.37,116.49 303.55,114.30 C299.73,112.10 296.44,109.83 296.25,109.25 C295.53,107.08 304.66,104.71 311.78,105.22 C322.39,105.98 323.00,106.56 323.00,115.98 C323.00,120.32 322.66,124.06 322.25,124.29 C321.84,124.51 319.02,123.25 316.00,121.49 ZM 304.41 164.10 C302.71,163.67 300.80,163.00 300.16,162.60 C298.64,161.66 298.55,145.00 300.06,145.00 C301.69,145.00 325.00,158.96 325.00,159.93 C325.00,162.56 310.16,165.57 304.41,164.10 ZM 320.67 153.79 C316.92,151.57 314.22,149.38 314.67,148.94 C316.07,147.57 338.05,135.00 339.05,135.00 C340.47,135.00 340.20,139.07 338.42,144.27 C336.99,148.49 329.75,158.12 328.17,157.91 C327.80,157.86 324.43,156.01 320.67,153.79 ZM 325.00 123.96 C325.00,109.61 325.08,108.97 326.86,109.93 C331.60,112.46 338.46,122.77 339.15,128.39 C339.46,130.98 338.87,131.65 333.15,135.13 C329.66,137.26 326.39,139.00 325.90,139.00 C325.40,139.00 325.00,132.23 325.00,123.96 ZM 248.45 147.55 C247.10,146.20 246.00,144.15 246.00,143.00 C246.00,140.18 250.35,136.00 253.28,136.00 C256.21,136.00 260.00,139.87 260.00,142.86 C260.00,145.67 255.76,150.00 253.00,150.00 C251.85,150.00 249.80,148.90 248.45,147.55 ZM 325.45 86.55 C324.10,85.20 323.00,83.15 323.00,82.00 C323.00,79.30 327.30,75.00 330.00,75.00 C332.82,75.00 337.00,79.35 337.00,82.28 C337.00,85.21 333.13,89.00 330.14,89.00 C328.91,89.00 326.80,87.90 325.45,86.55 ZM 269.45 94.55 C266.56,91.65 266.34,89.00 268.75,86.15 C271.66,82.71 275.49,82.40 278.45,85.36 C281.62,88.53 281.71,91.99 278.69,94.83 C275.65,97.67 272.49,97.58 269.45,94.55 ZM 357.45 160.55 C354.37,157.46 354.32,153.99 357.31,151.17 C360.49,148.19 364.37,148.38 366.93,151.63 C369.66,155.12 369.54,156.82 366.31,160.20 C363.01,163.65 360.65,163.74 357.45,160.55 ZM 314.50 196.81 C311.70,195.22 311.03,193.97 311.02,190.31 C310.99,184.65 317.93,181.93 322.00,186.00 C324.88,188.88 324.59,193.39 321.37,195.93 C318.38,198.28 317.33,198.41 314.50,196.81 ZM 252.63 118.93 C247.57,114.94 250.14,107.00 256.50,107.00 C262.86,107.00 265.43,114.94 260.37,118.93 C258.92,120.07 257.18,121.00 256.50,121.00 C255.82,121.00 254.08,120.07 252.63,118.93 ZM 296.00 83.00 C293.35,80.35 293.47,76.85 296.31,74.17 C299.28,71.39 303.36,71.40 305.96,74.19 C310.02,78.55 307.06,85.00 301.00,85.00 C299.33,85.00 297.11,84.11 296.00,83.00 ZM 283.07 191.37 C281.93,189.92 281.00,188.18 281.00,187.50 C281.00,186.82 281.93,185.08 283.07,183.63 C285.79,180.18 291.17,179.97 293.44,183.22 C298.55,190.51 288.56,198.34 283.07,191.37 ZM 260.63 174.93 C257.29,172.30 257.16,168.14 260.31,165.17 C264.66,161.09 271.01,163.55 270.98,169.31 C270.97,173.06 270.28,174.29 267.32,175.85 C264.35,177.41 263.68,177.32 260.63,174.93 ZM 348.56 103.78 C346.43,100.75 346.60,97.40 349.00,95.00 C354.77,89.23 363.86,97.09 358.83,103.49 C356.21,106.82 350.79,106.97 348.56,103.78 ZM 360.65 131.17 C358.46,128.74 358.55,123.72 360.83,121.65 C363.51,119.23 368.55,119.53 370.44,122.22 C373.80,127.02 371.12,133.00 365.60,133.00 C363.68,133.00 361.62,132.24 360.65,131.17 ZM 340.22 184.44 C337.34,182.43 337.20,177.03 339.97,174.53 C346.39,168.72 355.00,177.90 348.69,183.83 C345.95,186.39 343.28,186.59 340.22,184.44 ZM 93.62 8.21 C97.64,6.85 101.49,5.44 102.50,4.97 C105.36,3.63 112.96,2.05 116.69,2.02 C118.45,2.01 120.16,1.55 120.50,1.00 C120.83,0.47 107.97,0.15 82.33,0.04 L 219.29 0.11 C159.83,0.24 150.20,0.59 151.44,1.53 C152.51,2.34 154.47,3.00 155.81,3.00 C157.62,3.00 162.77,4.09 168.43,5.53 C143.75,-0.31 117.05,0.47 93.62,8.21 ZM 0.08 208.75 L 0.00 272.00 L 0.00 62.17 C0.00,96.36 0.18,124.15 0.41,123.92 C0.63,123.69 1.53,119.33 2.41,114.23 C3.29,109.13 4.44,104.18 4.98,103.23 C5.33,102.60 6.18,100.43 7.15,97.75 C6.12,101.11 5.22,104.53 4.45,108.00 C2.03,118.81 1.43,142.80 3.17,155.29 C2.71,153.05 2.25,151.19 1.97,150.50 C1.52,149.40 0.92,147.82 0.65,147.00 C0.38,146.18 0.12,173.96 0.08,208.75 ZM 342.65 168.17 C341.74,167.17 341.00,165.39 341.00,164.23 C341.00,162.09 344.38,159.00 346.72,159.00 C348.48,159.00 352.00,162.67 352.00,164.50 C352.00,166.59 348.38,170.00 346.15,170.00 C345.14,170.00 343.57,169.18 342.65,168.17 ZM 350.00 121.00 C348.90,119.90 348.00,118.32 348.00,117.50 C348.00,115.41 351.62,112.00 353.85,112.00 C355.98,112.00 359.00,114.99 359.00,117.11 C359.00,119.52 356.01,123.00 353.94,123.00 C352.87,123.00 351.10,122.10 350.00,121.00 ZM 312.65 91.17 C311.74,90.17 311.00,88.59 311.00,87.67 C311.00,85.59 314.48,82.00 316.50,82.00 C317.33,82.00 318.90,82.90 320.00,84.00 C321.10,85.10 322.00,86.68 322.00,87.50 C322.00,89.59 318.38,93.00 316.15,93.00 C315.14,93.00 313.57,92.18 312.65,91.17 ZM 289.22 94.44 C286.77,92.73 286.21,88.19 288.20,86.20 C288.86,85.54 290.40,85.00 291.63,85.00 C296.47,85.00 298.78,91.08 295.17,94.35 C292.91,96.40 292.03,96.41 289.22,94.44 ZM 268.20 108.80 C267.54,108.14 267.00,106.43 267.00,105.00 C267.00,101.70 268.70,100.00 272.00,100.00 C275.35,100.00 277.00,101.70 277.00,105.16 C277.00,109.28 271.11,111.71 268.20,108.80 ZM 260.41 154.50 C258.89,152.18 258.89,151.82 260.41,149.50 C264.16,143.78 272.02,148.26 269.18,154.50 C268.34,156.36 267.27,157.00 265.04,157.00 C262.95,157.00 261.55,156.25 260.41,154.50 ZM 322.63 182.48 C320.49,180.34 320.57,177.70 322.83,175.65 C325.29,173.42 328.30,173.57 330.53,176.03 C331.98,177.64 332.17,178.63 331.41,180.78 C330.26,184.09 325.21,185.07 322.63,182.48 ZM 335.65 101.17 C333.48,98.77 333.55,95.71 335.83,93.65 C338.21,91.50 340.29,91.56 342.35,93.83 C344.52,96.23 344.45,99.29 342.17,101.35 C339.79,103.50 337.71,103.44 335.65,101.17 ZM 352.57 145.43 C349.34,142.19 351.79,137.00 356.55,137.00 C358.01,137.00 359.60,137.98 360.59,139.50 C362.11,141.82 362.11,142.18 360.59,144.50 C358.71,147.37 354.95,147.81 352.57,145.43 ZM 298.04 185.07 C295.68,180.66 297.48,177.00 302.00,177.00 C305.19,177.00 307.00,178.68 307.00,181.63 C307.00,186.43 300.17,189.05 298.04,185.07 ZM 258.57 131.08 C256.22,128.48 256.94,124.88 260.18,123.07 C262.63,121.70 263.04,121.73 264.93,123.44 C267.49,125.75 267.59,129.15 265.17,131.35 C262.77,133.52 260.71,133.44 258.57,131.08 ZM 275.65 175.17 C273.48,172.77 273.56,170.71 275.92,168.57 C278.52,166.22 282.12,166.94 283.93,170.18 C285.30,172.63 285.27,173.04 283.56,174.93 C281.25,177.49 277.85,177.59 275.65,175.17 ZM 326.45 169.94 C324.45,167.74 325.05,165.63 328.26,163.61 C329.47,162.84 330.40,163.06 331.94,164.45 C334.41,166.68 334.54,168.32 332.43,170.43 C330.32,172.54 328.68,172.41 326.45,169.94 ZM 288.20 171.80 C284.81,168.41 288.80,162.75 293.00,165.00 C296.53,166.89 295.00,173.00 291.00,173.00 C290.12,173.00 288.86,172.46 288.20,171.80 ZM 307.98 176.19 C306.37,174.88 305.93,173.78 306.42,172.24 C307.37,169.25 310.70,168.42 313.07,170.56 C315.48,172.75 315.51,174.23 313.17,176.35 C310.89,178.41 310.72,178.40 307.98,176.19 ZM 324.20 103.80 C322.36,101.96 322.77,99.27 325.15,97.60 C329.14,94.81 333.61,99.56 330.37,103.14 C328.44,105.27 325.94,105.54 324.20,103.80 ZM 272.57 119.43 C270.24,117.10 270.65,114.12 273.47,112.83 C276.48,111.46 279.00,113.10 279.00,116.42 C279.00,120.61 275.42,122.28 272.57,119.43 ZM 273.20 157.80 C270.24,154.84 273.17,150.32 277.38,151.38 C280.29,152.11 281.36,154.47 279.96,157.07 C278.81,159.23 275.03,159.63 273.20,157.80 ZM 344.60 135.85 C342.23,132.45 345.10,128.26 348.96,129.49 C351.77,130.38 352.53,133.76 350.44,136.07 C348.17,138.58 346.47,138.51 344.60,135.85 ZM 267.03 138.06 C265.39,134.98 267.39,131.79 270.72,132.19 C274.07,132.59 275.89,135.36 274.39,137.75 C272.75,140.38 268.37,140.56 267.03,138.06 ZM 339.52 117.38 C336.23,114.09 339.91,108.20 343.75,110.61 C344.71,111.21 345.64,112.61 345.80,113.73 C346.10,115.70 343.72,119.00 342.00,119.00 C341.53,119.00 340.41,118.27 339.52,117.38 ZM 340.04 155.55 C337.38,152.35 341.29,147.43 344.75,149.61 C348.21,151.79 346.98,157.00 343.00,157.00 C342.03,157.00 340.70,156.35 340.04,155.55 ZM 305.04 98.55 C302.38,95.35 306.29,90.43 309.75,92.61 C313.21,94.79 311.98,100.00 308.00,100.00 C307.03,100.00 305.70,99.35 305.04,98.55 ZM 286.04 104.55 C283.38,101.35 287.29,96.43 290.75,98.61 C294.21,100.79 292.98,106.00 289.00,106.00 C288.03,106.00 286.70,105.35 286.04,104.55 ZM 465.73 0.64 C480.95,0.85 483.14,1.13 478.82,1.54 C465.52,2.80 455.69,4.42 446.51,7.13 C449.30,6.16 451.58,5.29 452.24,4.94 C453.19,4.42 457.24,3.47 461.24,2.82 C465.23,2.17 468.93,1.27 469.45,0.82 C469.52,0.76 468.23,0.70 465.73,0.64 ZM 543.44 0.00 L 590.00 0.00 L 546.75 0.02 C518.34,0.03 504.01,0.36 505.00,1.00 C505.83,1.54 509.65,2.91 513.50,4.06 C515.32,4.60 517.07,5.13 518.75,5.65 C509.61,2.89 505.40,2.00 502.28,2.00 C499.99,2.00 497.84,1.55 497.50,1.00 C497.09,0.34 512.66,0.00 543.44,0.00 ZM 40.01 41.86 C54.52,26.89 72.39,15.37 92.23,8.68 C72.20,15.54 54.43,27.01 40.01,41.86 ZM 539.94 13.18 C547.69,16.47 554.12,20.04 561.30,24.76 C555.14,20.71 547.28,16.49 539.94,13.18 ZM 206.95 21.60 C214.90,26.55 222.33,32.30 229.04,38.73 C223.06,33.01 214.79,26.66 206.95,21.60 ZM 497.31 271.53 C506.25,271.74 520.90,271.89 537.75,271.91 C518.21,271.88 504.94,271.77 497.31,271.53 ZM 489.52 270.72 C490.20,270.39 493.48,269.99 499.15,269.50 C495.54,269.81 491.70,270.31 489.52,270.72 ZM 179.61 8.67 C181.78,9.35 183.69,10.00 185.13,10.58 C185.84,10.86 186.54,11.14 187.24,11.44 C184.73,10.44 182.19,9.52 179.61,8.67 ZM 426.54 15.02 C426.10,15.23 425.66,15.44 425.22,15.66 C419.87,18.29 415.50,20.81 406.32,27.03 C415.50,20.81 419.87,18.29 425.22,15.65 C425.64,15.45 426.08,15.23 426.54,15.02 ZM 7.26 173.41 C8.36,176.77 9.34,179.59 10.34,182.21 C9.31,179.54 8.33,176.71 7.26,173.41 Z" fill="rgb(220,189,170)"/>
<path d="M 0.08 208.75 C0.12,173.96 0.38,146.18 0.65,147.00 C0.92,147.82 1.52,149.40 1.97,150.50 C2.42,151.60 3.31,155.65 3.94,159.50 C4.58,163.35 5.52,167.85 6.03,169.50 C9.59,181.00 11.92,186.82 16.79,196.41 C37.32,236.80 79.84,265.82 124.00,269.56 C144.87,271.33 131.94,271.88 68.25,271.94 L 0.00 272.00 L 0.08 208.75 ZM 138.00 271.10 C138.82,270.64 143.10,269.98 147.51,269.63 C170.68,267.79 190.09,260.64 212.92,245.54 C230.24,234.08 251.43,219.04 251.83,217.92 C252.02,217.41 247.29,210.01 241.33,201.48 C219.57,170.33 214.75,163.48 213.95,162.62 C213.51,162.14 203.50,168.51 191.69,176.80 C179.89,185.08 167.60,193.18 164.37,194.79 C147.25,203.38 125.18,203.12 106.87,194.11 C102.13,191.77 97.60,188.20 90.59,181.26 C82.57,173.32 80.21,170.25 77.01,163.57 C72.56,154.29 71.00,147.01 71.00,135.50 C71.00,123.97 72.56,116.69 77.01,107.50 C85.29,90.38 99.90,78.03 118.55,72.36 C125.66,70.20 145.91,69.93 153.00,71.90 C168.20,76.12 183.01,87.07 192.52,101.13 C195.26,105.18 205.38,119.75 215.00,133.50 C224.62,147.25 234.74,161.74 237.50,165.70 C240.25,169.66 246.36,178.44 251.07,185.20 C255.79,191.97 261.81,200.65 264.46,204.50 C270.36,213.07 274.82,217.89 282.00,223.46 C297.36,235.36 316.60,240.09 335.34,236.57 C344.73,234.80 360.60,228.19 361.58,225.65 C361.90,224.82 360.34,221.61 358.03,218.33 C355.76,215.13 352.70,210.70 351.22,208.50 C349.75,206.30 346.80,202.16 344.68,199.29 C342.56,196.43 341.12,193.62 341.48,193.04 C342.34,191.63 353.64,184.00 354.85,184.00 C355.37,184.00 356.71,185.46 357.81,187.25 C360.03,190.85 364.00,196.56 374.64,211.50 C386.91,228.72 405.78,245.38 422.86,254.06 C441.94,263.75 456.22,268.14 473.11,269.52 C477.85,269.90 482.35,270.61 483.11,271.09 C483.91,271.60 410.72,271.96 310.50,271.95 C214.80,271.95 137.18,271.56 138.00,271.10 ZM 488.15 271.03 C489.61,270.59 494.56,269.90 499.15,269.50 C520.57,267.64 546.35,257.63 564.22,244.21 C572.26,238.18 588.01,223.13 587.97,221.52 C587.96,220.96 583.57,217.25 578.22,213.28 C572.88,209.32 560.89,200.43 551.59,193.53 C542.29,186.64 534.27,181.00 533.75,181.00 C533.24,181.00 530.51,183.02 527.68,185.50 C514.43,197.09 494.77,203.14 477.71,200.86 C458.45,198.30 443.59,189.06 430.56,171.54 C426.06,165.49 418.27,154.37 387.47,110.00 C384.61,105.88 380.97,100.65 379.38,98.39 C377.80,96.13 373.55,90.06 369.94,84.89 C366.33,79.73 360.25,71.04 356.44,65.60 C346.14,50.88 335.65,42.68 320.11,37.21 C313.26,34.80 311.10,34.53 298.50,34.52 C286.48,34.50 283.52,34.83 277.57,36.82 C269.88,39.40 263.38,42.46 260.81,44.72 C258.95,46.35 257.77,44.28 272.95,65.97 C276.94,71.67 278.57,74.82 277.93,75.58 C277.41,76.21 274.34,78.58 271.09,80.86 L 265.19 84.99 L 258.61 75.75 C241.72,52.02 237.88,47.21 229.04,38.73 C216.49,26.71 201.45,17.07 185.13,10.58 C178.09,7.78 159.60,3.00 155.81,3.00 C154.47,3.00 152.51,2.34 151.44,1.53 C149.73,0.24 168.65,0.06 309.95,0.03 C398.20,0.01 469.97,0.37 469.45,0.82 C468.93,1.27 465.23,2.17 461.24,2.82 C457.24,3.47 453.19,4.42 452.24,4.94 C451.28,5.45 446.90,7.05 442.50,8.48 C438.10,9.92 430.32,13.14 425.22,15.65 C416.45,19.97 410.31,24.00 381.32,44.47 L 369.13 53.08 L 378.27 66.29 C394.06,89.14 404.78,104.41 406.83,107.00 L 408.82 109.50 L 411.16 107.40 C412.45,106.25 417.77,102.39 423.00,98.84 C428.23,95.28 436.33,89.64 441.00,86.32 C458.31,74.01 467.47,70.74 485.00,70.61 C495.68,70.54 498.52,70.87 504.50,72.90 C513.79,76.05 517.61,78.04 523.89,83.01 C526.83,85.33 529.78,86.92 530.58,86.61 C532.81,85.75 585.00,46.74 585.00,45.93 C585.00,44.40 567.83,29.07 561.30,24.76 C547.49,15.67 536.41,10.87 513.50,4.06 C509.65,2.91 505.83,1.54 505.00,1.00 C504.01,0.36 518.34,0.03 546.75,0.02 L 590.00 0.00 L 590.00 136.00 L 590.00 272.00 L 537.75 271.91 C509.01,271.87 486.69,271.47 488.15,271.03 ZM 0.00 62.17 L 0.00 0.00 L 60.56 -0.00 C100.68,-0.00 120.91,0.34 120.50,1.00 C120.16,1.55 118.45,2.01 116.69,2.02 C112.96,2.05 105.36,3.63 102.50,4.97 C101.40,5.49 96.90,7.11 92.50,8.59 C53.40,21.67 21.96,53.49 8.62,93.50 C7.15,97.90 5.51,102.28 4.98,103.23 C4.44,104.18 3.29,109.13 2.41,114.23 C1.53,119.33 0.63,123.69 0.41,123.92 C0.18,124.15 0.00,96.36 0.00,62.17 Z" fill="rgb(254,254,254)"/>
</g>
</svg>